{
  "accessors": [
    {
      "bufferView": 2,
      "componentType": 5126,
      "count": 48,
      "max": [
        1,
        1,
        8.055999755859375
      ],
      "min": [
        -1,
        -1,
        0
      ],
      "type": "VEC3"
    },
    {
      "bufferView": 2,
      "byteOffset": 576,
      "componentType": 5126,
      "count": 48,
      "max": [
        1,
        1,
        1
      ],
      "min": [
        -1,
        -1,
        -1
      ],
      "type": "VEC3"
    },
    {
      "bufferView": 3,
      "componentType": 5126,
      "count": 48,
      "max": [
        1,
        1,
        2.7032822345063323e-06,
        1
      ],
      "min": [
        -1,
        -1,
        -1.0891454849115689e-06,
        1
      ],
      "type": "VEC4"
    },
    {
      "bufferView": 1,
      "componentType": 5126,
      "count": 48,
      "max": [
        0.67365121841430664,
        0.87574821710586548
      ],
      "min": [
        0.0026196914259344339,
        0.012197666801512241
      ],
      "type": "VEC2"
    },
    {
      "bufferView": 0,
      "componentType": 5125,
      "count": 96,
      "max": [
        47
      ],
      "min": [
        0
      ],
      "type": "SCALAR"
    },
    {
      "bufferView": 2,
      "byteOffset": 1152,
      "componentType": 5126,
      "count": 807,
      "max": [
        1.6245145797729492,
        2.3577890396118164,
        3.4270448684692383
      ],
      "min": [
        -0.0034517645835876465,
        -0.3732297420501709,
        -4.1530060768127441
      ],
      "type": "VEC3"
    },
    {
      "bufferView": 2,
      "byteOffset": 10836,
      "componentType": 5126,
      "count": 807,
      "max": [
        1,
        1,
        1
      ],
      "min": [
        -1,
        -1,
        -1
      ],
      "type": "VEC3"
    },
    {
      "bufferView": 3,
      "byteOffset": 768,
      "componentType": 5126,
      "count": 807,
      "max": [
        1,
        1,
        0.99321043491363525,
        1
      ],
      "min": [
        -1,
        -1,
        -0.3625674843788147,
        1
      ],
      "type": "VEC4"
    },
    {
      "bufferView": 1,
      "byteOffset": 384,
      "componentType": 5126,
      "count": 807,
      "max": [
        0.99948608875274658,
        0.99678182601928711
      ],
      "min": [
        0.0005140725988894701,
        0.0033738268539309502
      ],
      "type": "VEC2"
    },
    {
      "bufferView": 0,
      "byteOffset": 384,
      "componentType": 5125,
      "count": 1317,
      "max": [
        806
      ],
      "min": [
        0
      ],
      "type": "SCALAR"
    },
    {
      "bufferView": 2,
      "byteOffset": 20520,
      "componentType": 5126,
      "count": 351,
      "max": [
        1.4188172817230225,
        1.1997450590133667,
        3.0888972282409668
      ],
      "min": [
        0.2004019021987915,
        0.8030012845993042,
        -0.24525916576385498
      ],
      "type": "VEC3"
    },
    {
      "bufferView": 2,
      "byteOffset": 24732,
      "componentType": 5126,
      "count": 351,
      "max": [
        1,
        1,
        1
      ],
      "min": [
        -1,
        -1,
        -1
      ],
      "type": "VEC3"
    },
    {
      "bufferView": 3,
      "byteOffset": 13680,
      "componentType": 5126,
      "count": 351,
      "max": [
        1,
        1,
        1,
        1
      ],
      "min": [
        -1,
        -1,
        -1,
        -1
      ],
      "type": "VEC4"
    },
    {
      "bufferView": 1,
      "byteOffset": 6840,
      "componentType": 5126,
      "count": 351,
      "max": [
        0.98104959726333618,
        0.99440222978591919
      ],
      "min": [
        0.037181131541728973,
        0.26089102029800415
      ],
      "type": "VEC2"
    },
    {
      "bufferView": 0,
      "byteOffset": 5652,
      "componentType": 5125,
      "count": 591,
      "max": [
        350
      ],
      "min": [
        0
      ],
      "type": "SCALAR"
    },
    {
      "bufferView": 2,
      "byteOffset": 28944,
      "componentType": 5126,
      "count": 332,
      "max": [
        1.5571458339691162,
        6.0603532791137695,
        -0.56507408618927002
      ],
      "min": [
        1.4261554479598999,
        -4.0757923126220703,
        -0.82724303007125854
      ],
      "type": "VEC3"
    },
    {
      "bufferView": 2,
      "byteOffset": 32928,
      "componentType": 5126,
      "count": 332,
      "max": [
        1,
        1,
        1
      ],
      "min": [
        -1,
        -1,
        -1
      ],
      "type": "VEC3"
    },
    {
      "bufferView": 3,
      "byteOffset": 19296,
      "componentType": 5126,
      "count": 332,
      "max": [
        1,
        0.55728024244308472,
        1,
        1
      ],
      "min": [
        -1,
        -0.55731791257858276,
        -1,
        1
      ],
      "type": "VEC4"
    },
    {
      "bufferView": 1,
      "byteOffset": 9648,
      "componentType": 5126,
      "count": 332,
      "max": [
        0.99077838659286499,
        0.94848501682281494
      ],
      "min": [
        0.16463659703731537,
        0.0065067298710346222
      ],
      "type": "VEC2"
    },
    {
      "bufferView": 0,
      "byteOffset": 8016,
      "componentType": 5125,
      "count": 1392,
      "max": [
        331
      ],
      "min": [
        0
      ],
      "type": "SCALAR"
    },
    {
      "bufferView": 4,
      "componentType": 5126,
      "count": 93,
      "max": [
        2.0416667461395264
      ],
      "min": [
        0
      ],
      "type": "SCALAR"
    },
    {
      "bufferView": 5,
      "componentType": 5126,
      "count": 93,
      "max": [
        0.49274390935897827,
        0.6458747386932373,
        0.64587479829788208,
        0.70710670948028564
      ],
      "min": [
        -0.7071068286895752,
        -0.49652162194252014,
        -0.4965217113494873,
        -0.49274381995201111
      ],
      "type": "VEC4"
    }
  ],
  "animations": [
    {
      "channels": [
        {
          "sampler": 0,
          "target": {
            "node": 7,
            "path": "rotation"
          }
        }
      ],
      "name": "door|doorAction",
      "samplers": [
        {
          "input": 20,
          "interpolation": "LINEAR",
          "output": 21
        }
      ]
    }
  ],
  "asset": {
    "extras": {
      "author": "SusanKing (https://sketchfab.com/krolzuzannapl)",
      "license": "CC-BY-4.0 (http://creativecommons.org/licenses/by/4.0/)",
      "source": "https://sketchfab.com/3d-models/animated-old-door-6aee41b1e1474418ae9b79fae97f2966",
      "title": "Animated old door"
    },
    "generator": "Sketchfab-8.62.0",
    "version": "2.0"
  },
  "bufferViews": [
    {
      "buffer": 0,
      "byteLength": 13584,
      "byteOffset": 0,
      "name": "floatBufferViews",
      "target": 34963
    },
    {
      "buffer": 0,
      "byteLength": 12304,
      "byteOffset": 13584,
      "byteStride": 8,
      "name": "floatBufferViews",
      "target": 34962
    },
    {
      "buffer": 0,
      "byteLength": 36912,
      "byteOffset": 25888,
      "byteStride": 12,
      "name": "floatBufferViews",
      "target": 34962
    },
    {
      "buffer": 0,
      "byteLength": 24608,
      "byteOffset": 62800,
      "byteStride": 16,
      "name": "floatBufferViews",
      "target": 34962
    },
    {
      "buffer": 0,
      "byteLength": 372,
      "byteOffset": 87408,
      "name": "floatBufferViews"
    },
    {
      "buffer": 0,
      "byteLength": 1488,
      "byteOffset": 87780,
      "byteStride": 16,
      "name": "floatBufferViews"
    }
  ],
  "buffers": [
    {
      "byteLength": 89268,
      "uri": "animateddoor.bin"
    }
  ],
  "images": [
    {
      "uri": "animateddoor/doors_baseColor.jpeg"
    },
    {
      "uri": "animateddoor/doors_metallicRoughness.png"
    },
    {
      "uri": "animateddoor/doors_normal.png"
    },
    {
      "uri": "animateddoor/window_baseColor.png"
    },
    {
      "uri": "animateddoor/window_metallicRoughness.png"
    },
    {
      "uri": "animateddoor/window_normal.png"
    },
    {
      "uri": "animateddoor/handle_baseColor.jpeg"
    },
    {
      "uri": "animateddoor/handle_metallicRoughness.png"
    },
    {
      "uri": "animateddoor/handle_normal.png"
    }
  ],
  "materials": [
    {
      "doubleSided": true,
      "emissiveFactor": [
        0,
        0,
        0
      ],
      "name": "doors",
      "normalTexture": {
        "index": 2,
        "scale": 1,
        "texCoord": 0
      },
      "occlusionTexture": {
        "index": 1,
        "strength": 1,
        "texCoord": 0
      },
      "pbrMetallicRoughness": {
        "baseColorFactor": [
          1,
          1,
          1,
          1
        ],
        "baseColorTexture": {
          "index": 0,
          "texCoord": 0
        },
        "metallicFactor": 1,
        "metallicRoughnessTexture": {
          "index": 1,
          "texCoord": 0
        },
        "roughnessFactor": 1
      }
    },
    {
      "alphaMode": "BLEND",
      "doubleSided": true,
      "emissiveFactor": [
        0,
        0,
        0
      ],
      "name": "window",
      "normalTexture": {
        "index": 5,
        "scale": 1,
        "texCoord": 0
      },
      "occlusionTexture": {
        "index": 4,
        "strength": 1,
        "texCoord": 0
      },
      "pbrMetallicRoughness": {
        "baseColorFactor": [
          1,
          1,
          1,
          1
        ],
        "baseColorTexture": {
          "index": 3,
          "texCoord": 0
        },
        "metallicFactor": 1,
        "metallicRoughnessTexture": {
          "index": 4,
          "texCoord": 0
        },
        "roughnessFactor": 1
      }
    },
    {
      "doubleSided": true,
      "emissiveFactor": [
        0,
        0,
        0
      ],
      "name": "handle",
      "normalTexture": {
        "index": 8,
        "scale": 1,
        "texCoord": 0
      },
      "occlusionTexture": {
        "index": 7,
        "strength": 1,
        "texCoord": 0
      },
      "pbrMetallicRoughness": {
        "baseColorFactor": [
          1,
          1,
          1,
          1
        ],
        "baseColorTexture": {
          "index": 6,
          "texCoord": 0
        },
        "metallicFactor": 1,
        "metallicRoughnessTexture": {
          "index": 7,
          "texCoord": 0
        },
        "roughnessFactor": 1
      }
    }
  ],
  "meshes": [
    {
      "name": "frame_doors_0",
      "primitives": [
        {
          "attributes": {
            "NORMAL": 1,
            "POSITION": 0,
            "TANGENT": 2,
            "TEXCOORD_0": 3
          },
          "indices": 4,
          "material": 0,
          "mode": 4
        }
      ]
    },
    {
      "name": "door_doors_0",
      "primitives": [
        {
          "attributes": {
            "NORMAL": 6,
            "POSITION": 5,
            "TANGENT": 7,
            "TEXCOORD_0": 8
          },
          "indices": 9,
          "material": 0,
          "mode": 4
        }
      ]
    },
    {
      "name": "door_window_0",
      "primitives": [
        {
          "attributes": {
            "NORMAL": 11,
            "POSITION": 10,
            "TANGENT": 12,
            "TEXCOORD_0": 13
          },
          "indices": 14,
          "material": 1,
          "mode": 4
        }
      ]
    },
    {
      "name": "door_handle_0",
      "primitives": [
        {
          "attributes": {
            "NORMAL": 16,
            "POSITION": 15,
            "TANGENT": 17,
            "TEXCOORD_0": 18
          },
          "indices": 19,
          "material": 2,
          "mode": 4
        }
      ]
    }
  ],
  "nodes": [
    {
      "children": [
        1
      ],
      "name": "RootNode (gltf orientation matrix)",
      "rotation": [
        -0.70710678118654746,
        -0,
        -0,
        0.70710678118654757
      ]
    },
    {
      "children": [
        2
      ],
      "name": "RootNode (model correction matrix)"
    },
    {
      "children": [
        3
      ],
      "matrix": [
        1,
        0,
        0,
        0,
        0,
        0,
        1,
        0,
        0,
        -1,
        0,
        0,
        0,
        0,
        0,
        1
      ],
      "name": "5cae6422bf5e496c91eebf89a7218f63.fbx"
    },
    {
      "children": [
        4
      ],
      "name": ""
    },
    {
      "children": [
        5,
        7
      ],
      "name": "RootNode"
    },
    {
      "children": [
        6
      ],
      "name": "frame",
      "rotation": [
        -0.7071068286895752,
        0,
        0,
        0.70710670948028564
      ],
      "scale": [
        60.000003814697266,
        4.4124274253845215,
        30.000001907348633
      ]
    },
    {
      "mesh": 0,
      "name": "frame_doors_0"
    },
    {
      "children": [
        8,
        9,
        10
      ],
      "name": "door",
      "rotation": [
        -0.7071068286895752,
        0,
        0,
        0.70710670948028564
      ],
      "scale": [
        60.000003814697266,
        2.5114302635192871,
        30.000001907348633
      ],
      "translation": [
        -48.631889343261719,
        127.53144836425781,
        3.6416027545928955
      ]
    },
    {
      "mesh": 1,
      "name": "door_doors_0"
    },
    {
      "mesh": 2,
      "name": "door_window_0"
    },
    {
      "mesh": 3,
      "name": "door_handle_0"
    }
  ],
  "samplers": [
    {
      "magFilter": 9729,
      "minFilter": 9987,
      "wrapS": 10497,
      "wrapT": 10497
    }
  ],
  "scene": 0,
  "scenes": [
    {
      "name": "OSG_Scene",
      "nodes": [
        0
      ]
    }
  ],
  "textures": [
    {
      "sampler": 0,
      "source": 0
    },
    {
      "sampler": 0,
      "source": 1
    },
    {
      "sampler": 0,
      "source": 2
    },
    {
      "sampler": 0,
      "source": 3
    },
    {
      "sampler": 0,
      "source": 4
    },
    {
      "sampler": 0,
      "source": 5
    },
    {
      "sampler": 0,
      "source": 6
    },
    {
      "sampler": 0,
      "source": 7
    },
    {
      "sampler": 0,
      "source": 8
    }
  ]
}

