{
  "accessors": [
    {
      "bufferView": 2,
      "componentType": 5126,
      "count": 773,
      "max": [
        -0.59037399291992188,
        0.084317900240421295,
        0.37069499492645264
      ],
      "min": [
        -1,
        -0.23421299457550049,
        -0.37069499492645264
      ],
      "type": "VEC3"
    },
    {
      "bufferView": 2,
      "byteOffset": 9276,
      "componentType": 5126,
      "count": 773,
      "max": [
        1,
        1,
        1
      ],
      "min": [
        -1,
        -1,
        -1
      ],
      "type": "VEC3"
    },
    {
      "bufferView": 3,
      "componentType": 5126,
      "count": 773,
      "max": [
        1,
        0.98708701133728027,
        1,
        1
      ],
      "min": [
        -1,
        -0.98708701133728027,
        -1,
        1
      ],
      "type": "VEC4"
    },
    {
      "bufferView": 1,
      "componentType": 5126,
      "count": 773,
      "max": [
        0.99949997663497925,
        0.98625200986862183
      ],
      "min": [
        0.51659101247787476,
        0.0051079601980745792
      ],
      "type": "VEC2"
    },
    {
      "bufferView": 0,
      "componentType": 5125,
      "count": 3612,
      "max": [
        772
      ],
      "min": [
        0
      ],
      "type": "SCALAR"
    },
    {
      "bufferView": 2,
      "byteOffset": 18552,
      "componentType": 5126,
      "count": 1044,
      "max": [
        1,
        0.084317900240421295,
        0.37069499492645264
      ],
      "min": [
        0.59029000997543335,
        -0.23421299457550049,
        -0.37069499492645264
      ],
      "type": "VEC3"
    },
    {
      "bufferView": 2,
      "byteOffset": 31080,
      "componentType": 5126,
      "count": 1044,
      "max": [
        1,
        1,
        1
      ],
      "min": [
        -1,
        -1,
        -1
      ],
      "type": "VEC3"
    },
    {
      "bufferView": 3,
      "byteOffset": 12368,
      "componentType": 5126,
      "count": 1044,
      "max": [
        1,
        0.98708701133728027,
        1,
        1
      ],
      "min": [
        -1,
        -0.98708701133728027,
        -1,
        1
      ],
      "type": "VEC4"
    },
    {
      "bufferView": 1,
      "byteOffset": 6184,
      "componentType": 5126,
      "count": 1044,
      "max": [
        0.99710899591445923,
        0.99747300148010254
      ],
      "min": [
        0.00050000002374872565,
        0.47051200270652771
      ],
      "type": "VEC2"
    },
    {
      "bufferView": 0,
      "byteOffset": 14448,
      "componentType": 5125,
      "count": 4956,
      "max": [
        1043
      ],
      "min": [
        0
      ],
      "type": "SCALAR"
    },
    {
      "bufferView": 2,
      "byteOffset": 43608,
      "componentType": 5126,
      "count": 899,
      "max": [
        0.58891898393630981,
        0.084317900240421295,
        0.039014801383018494
      ],
      "min": [
        -0.59223902225494385,
        -0.23421299457550049,
        -0.37069499492645264
      ],
      "type": "VEC3"
    },
    {
      "bufferView": 2,
      "byteOffset": 54396,
      "componentType": 5126,
      "count": 899,
      "max": [
        1,
        1,
        1
      ],
      "min": [
        -1,
        -1,
        -1
      ],
      "type": "VEC3"
    },
    {
      "bufferView": 3,
      "byteOffset": 29072,
      "componentType": 5126,
      "count": 899,
      "max": [
        1,
        0.98708701133728027,
        1,
        1
      ],
      "min": [
        -1,
        -0.98708701133728027,
        -1,
        1
      ],
      "type": "VEC4"
    },
    {
      "bufferView": 1,
      "byteOffset": 14536,
      "componentType": 5126,
      "count": 899,
      "max": [
        0.99336898326873779,
        0.99740099906921387
      ],
      "min": [
        0.00050000002374872565,
        0.00050000002374872565
      ],
      "type": "VEC2"
    },
    {
      "bufferView": 0,
      "byteOffset": 34272,
      "componentType": 5125,
      "count": 4332,
      "max": [
        898
      ],
      "min": [
        0
      ],
      "type": "SCALAR"
    },
    {
      "bufferView": 2,
      "byteOffset": 65184,
      "componentType": 5126,
      "count": 456,
      "max": [
        0.96326297521591187,
        0.18130199611186981,
        0.035510599613189697
      ],
      "min": [
        0.65019899606704712,
        0.016821300610899925,
        -0.30940601229667664
      ],
      "type": "VEC3"
    },
    {
      "bufferView": 2,
      "byteOffset": 70656,
      "componentType": 5126,
      "count": 456,
      "max": [
        0.99037563800811768,
        0.99994248151779175,
        0.99877333641052246
      ],
      "min": [
        -0.96717751026153564,
        -0.99103689193725586,
        -0.98190420866012573
      ],
      "type": "VEC3"
    },
    {
      "bufferView": 3,
      "byteOffset": 43456,
      "componentType": 5126,
      "count": 456,
      "max": [
        0.71162497997283936,
        0.87551897764205933,
        0.92247897386550903,
        1
      ],
      "min": [
        -0.98709297180175781,
        -0.84608602523803711,
        -0.99973702430725098,
        1
      ],
      "type": "VEC4"
    },
    {
      "bufferView": 1,
      "byteOffset": 21728,
      "componentType": 5126,
      "count": 456,
      "max": [
        0.99949997663497925,
        0.99730598926544189
      ],
      "min": [
        0.00049996399320662022,
        0.49743500351905823
      ],
      "type": "VEC2"
    },
    {
      "bufferView": 0,
      "byteOffset": 51600,
      "componentType": 5125,
      "count": 2400,
      "max": [
        455
      ],
      "min": [
        0
      ],
      "type": "SCALAR"
    },
    {
      "bufferView": 2,
      "byteOffset": 76128,
      "componentType": 5126,
      "count": 456,
      "max": [
        0.65687602758407593,
        0.22419199347496033,
        -0.16981999576091766
      ],
      "min": [
        0.35128000378608704,
        0.015398900024592876,
        -0.33898299932479858
      ],
      "type": "VEC3"
    },
    {
      "bufferView": 2,
      "byteOffset": 81600,
      "componentType": 5126,
      "count": 456,
      "max": [
        0.99993562698364258,
        0.99513065814971924,
        0.99372786283493042
      ],
      "min": [
        -0.99978548288345337,
        -0.99976962804794312,
        -0.99864614009857178
      ],
      "type": "VEC3"
    },
    {
      "bufferView": 3,
      "byteOffset": 50752,
      "componentType": 5126,
      "count": 456,
      "max": [
        0.99998998641967773,
        0.77239298820495605,
        0.92068302631378174,
        1
      ],
      "min": [
        -0.99999302625656128,
        -0.83802998065948486,
        -0.91785597801208496,
        1
      ],
      "type": "VEC4"
    },
    {
      "bufferView": 1,
      "byteOffset": 25376,
      "componentType": 5126,
      "count": 456,
      "max": [
        0.99949997663497925,
        0.50037097930908203
      ],
      "min": [
        0.00050000002374872565,
        0.00050000002374872565
      ],
      "type": "VEC2"
    },
    {
      "bufferView": 0,
      "byteOffset": 61200,
      "componentType": 5125,
      "count": 2400,
      "max": [
        455
      ],
      "min": [
        0
      ],
      "type": "SCALAR"
    },
    {
      "bufferView": 2,
      "byteOffset": 87072,
      "componentType": 5126,
      "count": 456,
      "max": [
        -0.14189399778842926,
        0.23421299457550049,
        -0.044270001351833344
      ],
      "min": [
        -0.45253700017929077,
        0.0054754898883402348,
        -0.31442499160766602
      ],
      "type": "VEC3"
    },
    {
      "bufferView": 2,
      "byteOffset": 92544,
      "componentType": 5126,
      "count": 456,
      "max": [
        0.97696602344512939,
        0.9973265528678894,
        0.98070687055587769
      ],
      "min": [
        -0.96954387426376343,
        -0.99981224536895752,
        -0.99198013544082642
      ],
      "type": "VEC3"
    },
    {
      "bufferView": 3,
      "byteOffset": 58048,
      "componentType": 5126,
      "count": 456,
      "max": [
        0.95879298448562622,
        0.82284802198410034,
        0.92389899492263794,
        1
      ],
      "min": [
        -0.98636698722839355,
        -0.79664701223373413,
        -0.91692399978637695,
        1
      ],
      "type": "VEC4"
    },
    {
      "bufferView": 1,
      "byteOffset": 29024,
      "componentType": 5126,
      "count": 456,
      "max": [
        0.99949997663497925,
        0.50037097930908203
      ],
      "min": [
        0.00050000002374872565,
        0.00050000002374872565
      ],
      "type": "VEC2"
    },
    {
      "bufferView": 0,
      "byteOffset": 70800,
      "componentType": 5125,
      "count": 2400,
      "max": [
        455
      ],
      "min": [
        0
      ],
      "type": "SCALAR"
    },
    {
      "bufferView": 2,
      "byteOffset": 98016,
      "componentType": 5126,
      "count": 456,
      "max": [
        -0.44586101174354553,
        0.22419199347496033,
        -0.16981999576091766
      ],
      "min": [
        -0.75145697593688965,
        0.015398900024592876,
        -0.33898299932479858
      ],
      "type": "VEC3"
    },
    {
      "bufferView": 2,
      "byteOffset": 103488,
      "componentType": 5126,
      "count": 456,
      "max": [
        0.99993562698364258,
        0.99513065814971924,
        0.99372786283493042
      ],
      "min": [
        -0.99978548288345337,
        -0.99976962804794312,
        -0.99864614009857178
      ],
      "type": "VEC3"
    },
    {
      "bufferView": 3,
      "byteOffset": 65344,
      "componentType": 5126,
      "count": 456,
      "max": [
        0.99999302625656128,
        0.83802998065948486,
        0.91785699129104614,
        1
      ],
      "min": [
        -0.99998998641967773,
        -0.77239298820495605,
        -0.92068302631378174,
        1
      ],
      "type": "VEC4"
    },
    {
      "bufferView": 1,
      "byteOffset": 32672,
      "componentType": 5126,
      "count": 456,
      "max": [
        0.99949997663497925,
        0.99730598926544189
      ],
      "min": [
        0.00049996399320662022,
        0.49743500351905823
      ],
      "type": "VEC2"
    },
    {
      "bufferView": 0,
      "byteOffset": 80400,
      "componentType": 5125,
      "count": 2400,
      "max": [
        455
      ],
      "min": [
        0
      ],
      "type": "SCALAR"
    },
    {
      "bufferView": 2,
      "byteOffset": 108960,
      "componentType": 5126,
      "count": 456,
      "max": [
        0.048232600092887878,
        0.22173599898815155,
        -0.16605600714683533
      ],
      "min": [
        -0.25736299157142639,
        0.012942800298333168,
        -0.33522000908851624
      ],
      "type": "VEC3"
    },
    {
      "bufferView": 2,
      "byteOffset": 114432,
      "componentType": 5126,
      "count": 456,
      "max": [
        0.99993562698364258,
        0.99976962804794312,
        0.99864614009857178
      ],
      "min": [
        -0.99978548288345337,
        -0.99513065814971924,
        -0.99372786283493042
      ],
      "type": "VEC3"
    },
    {
      "bufferView": 3,
      "byteOffset": 72640,
      "componentType": 5126,
      "count": 456,
      "max": [
        0.99999302625656128,
        0.77239298820495605,
        0.92068302631378174,
        1
      ],
      "min": [
        -0.99998998641967773,
        -0.83802998065948486,
        -0.91785699129104614,
        1
      ],
      "type": "VEC4"
    },
    {
      "bufferView": 1,
      "byteOffset": 36320,
      "componentType": 5126,
      "count": 456,
      "max": [
        0.99949997663497925,
        0.99730598926544189
      ],
      "min": [
        0.00049996399320662022,
        0.49743500351905823
      ],
      "type": "VEC2"
    },
    {
      "bufferView": 0,
      "byteOffset": 90000,
      "componentType": 5125,
      "count": 2400,
      "max": [
        455
      ],
      "min": [
        0
      ],
      "type": "SCALAR"
    }
  ],
  "asset": {
    "extras": {
      "author": "edouard.angebault (https://sketchfab.com/edouard.angebault)",
      "license": "CC-BY-4.0 (http://creativecommons.org/licenses/by/4.0/)",
      "source": "https://sketchfab.com/models/6ad696569d8444e79d97c6f1746595d5",
      "title": "couch"
    },
    "generator": "Sketchfab-3.19.6",
    "version": "2.0"
  },
  "bufferViews": [
    {
      "buffer": 0,
      "byteLength": 99600,
      "byteOffset": 0,
      "name": "floatBufferViews",
      "target": 34963
    },
    {
      "buffer": 0,
      "byteLength": 39968,
      "byteOffset": 99600,
      "byteStride": 8,
      "name": "floatBufferViews",
      "target": 34962
    },
    {
      "buffer": 0,
      "byteLength": 119904,
      "byteOffset": 139568,
      "byteStride": 12,
      "name": "floatBufferViews",
      "target": 34962
    },
    {
      "buffer": 0,
      "byteLength": 79936,
      "byteOffset": 259472,
      "byteStride": 16,
      "name": "floatBufferViews",
      "target": 34962
    }
  ],
  "buffers": [
    {
      "byteLength": 339408,
      "uri": "couch.bin"
    }
  ],
  "images": [
    {
      "uri": "couch/Coussin_002_Mat_baseColor.png"
    },
    {
      "uri": "couch/Coussin_002_Mat_metallicRoughness.png"
    },
    {
      "uri": "couch/Coussin_002_Mat_normal.png"
    },
    {
      "uri": "couch/Coussin_004_Mat_baseColor.png"
    },
    {
      "uri": "couch/Coussin_004_Mat_metallicRoughness.png"
    },
    {
      "uri": "couch/Coussin_004_Mat_normal.png"
    },
    {
      "uri": "couch/Coussin_005_Mat_baseColor.png"
    },
    {
      "uri": "couch/Coussin_005_Mat_metallicRoughness.png"
    },
    {
      "uri": "couch/Coussin_005_Mat_normal.png"
    },
    {
      "uri": "couch/Coussin_003_Mat_baseColor.png"
    },
    {
      "uri": "couch/Coussin_003_Mat_metallicRoughness.png"
    },
    {
      "uri": "couch/Coussin_003_Mat_normal.png"
    },
    {
      "uri": "couch/Coussin_001_Mat_baseColor.png"
    },
    {
      "uri": "couch/Coussin_001_Mat_metallicRoughness.png"
    },
    {
      "uri": "couch/Coussin_001_Mat_normal.png"
    },
    {
      "uri": "couch/Canape_Mat_baseColor.png"
    },
    {
      "uri": "couch/Canape_Mat_metallicRoughness.png"
    },
    {
      "uri": "couch/Canape_Mat_normal.png"
    }
  ],
  "materials": [
    {
      "alphaMode": "BLEND",
      "doubleSided": true,
      "emissiveFactor": [
        0,
        0,
        0
      ],
      "name": "Coussin_003_Mat",
      "normalTexture": {
        "index": 11,
        "scale": 1,
        "texCoord": 0
      },
      "occlusionTexture": {
        "index": 10,
        "strength": 1,
        "texCoord": 0
      },
      "pbrMetallicRoughness": {
        "baseColorFactor": [
          1,
          1,
          1,
          1
        ],
        "baseColorTexture": {
          "index": 9,
          "texCoord": 0
        },
        "metallicFactor": 1,
        "metallicRoughnessTexture": {
          "index": 10,
          "texCoord": 0
        },
        "roughnessFactor": 1
      }
    },
    {
      "alphaMode": "BLEND",
      "doubleSided": true,
      "emissiveFactor": [
        0,
        0,
        0
      ],
      "name": "Coussin_001_Mat",
      "normalTexture": {
        "index": 14,
        "scale": 1,
        "texCoord": 0
      },
      "occlusionTexture": {
        "index": 13,
        "strength": 1,
        "texCoord": 0
      },
      "pbrMetallicRoughness": {
        "baseColorFactor": [
          1,
          1,
          1,
          1
        ],
        "baseColorTexture": {
          "index": 12,
          "texCoord": 0
        },
        "metallicFactor": 1,
        "metallicRoughnessTexture": {
          "index": 13,
          "texCoord": 0
        },
        "roughnessFactor": 1
      }
    },
    {
      "alphaMode": "BLEND",
      "doubleSided": true,
      "emissiveFactor": [
        0,
        0,
        0
      ],
      "name": "Coussin_002_Mat",
      "normalTexture": {
        "index": 2,
        "scale": 1,
        "texCoord": 0
      },
      "occlusionTexture": {
        "index": 1,
        "strength": 1,
        "texCoord": 0
      },
      "pbrMetallicRoughness": {
        "baseColorFactor": [
          1,
          1,
          1,
          1
        ],
        "baseColorTexture": {
          "index": 0,
          "texCoord": 0
        },
        "metallicFactor": 1,
        "metallicRoughnessTexture": {
          "index": 1,
          "texCoord": 0
        },
        "roughnessFactor": 1
      }
    },
    {
      "alphaMode": "BLEND",
      "doubleSided": true,
      "emissiveFactor": [
        0,
        0,
        0
      ],
      "name": "Coussin_004_Mat",
      "normalTexture": {
        "index": 5,
        "scale": 1,
        "texCoord": 0
      },
      "occlusionTexture": {
        "index": 4,
        "strength": 1,
        "texCoord": 0
      },
      "pbrMetallicRoughness": {
        "baseColorFactor": [
          1,
          1,
          1,
          1
        ],
        "baseColorTexture": {
          "index": 3,
          "texCoord": 0
        },
        "metallicFactor": 1,
        "metallicRoughnessTexture": {
          "index": 4,
          "texCoord": 0
        },
        "roughnessFactor": 1
      }
    },
    {
      "alphaMode": "BLEND",
      "doubleSided": true,
      "emissiveFactor": [
        0,
        0,
        0
      ],
      "name": "Coussin_005_Mat",
      "normalTexture": {
        "index": 8,
        "scale": 1,
        "texCoord": 0
      },
      "occlusionTexture": {
        "index": 7,
        "strength": 1,
        "texCoord": 0
      },
      "pbrMetallicRoughness": {
        "baseColorFactor": [
          1,
          1,
          1,
          1
        ],
        "baseColorTexture": {
          "index": 6,
          "texCoord": 0
        },
        "metallicFactor": 1,
        "metallicRoughnessTexture": {
          "index": 7,
          "texCoord": 0
        },
        "roughnessFactor": 1
      }
    },
    {
      "alphaMode": "BLEND",
      "doubleSided": true,
      "emissiveFactor": [
        0,
        0,
        0
      ],
      "name": "Canape_Mat",
      "normalTexture": {
        "index": 17,
        "scale": 1,
        "texCoord": 0
      },
      "occlusionTexture": {
        "index": 16,
        "strength": 1,
        "texCoord": 0
      },
      "pbrMetallicRoughness": {
        "baseColorFactor": [
          1,
          1,
          1,
          1
        ],
        "baseColorTexture": {
          "index": 15,
          "texCoord": 0
        },
        "metallicFactor": 1,
        "metallicRoughnessTexture": {
          "index": 16,
          "texCoord": 0
        },
        "roughnessFactor": 1
      }
    }
  ],
  "meshes": [
    {
      "name": "defaultMaterial",
      "primitives": [
        {
          "attributes": {
            "NORMAL": 1,
            "POSITION": 0,
            "TANGENT": 2,
            "TEXCOORD_0": 3
          },
          "indices": 4,
          "material": 5,
          "mode": 4
        }
      ]
    },
    {
      "name": "defaultMaterial",
      "primitives": [
        {
          "attributes": {
            "NORMAL": 6,
            "POSITION": 5,
            "TANGENT": 7,
            "TEXCOORD_0": 8
          },
          "indices": 9,
          "material": 5,
          "mode": 4
        }
      ]
    },
    {
      "name": "defaultMaterial",
      "primitives": [
        {
          "attributes": {
            "NORMAL": 11,
            "POSITION": 10,
            "TANGENT": 12,
            "TEXCOORD_0": 13
          },
          "indices": 14,
          "material": 5,
          "mode": 4
        }
      ]
    },
    {
      "name": "defaultMaterial",
      "primitives": [
        {
          "attributes": {
            "NORMAL": 16,
            "POSITION": 15,
            "TANGENT": 17,
            "TEXCOORD_0": 18
          },
          "indices": 19,
          "material": 4,
          "mode": 4
        }
      ]
    },
    {
      "name": "defaultMaterial",
      "primitives": [
        {
          "attributes": {
            "NORMAL": 21,
            "POSITION": 20,
            "TANGENT": 22,
            "TEXCOORD_0": 23
          },
          "indices": 24,
          "material": 3,
          "mode": 4
        }
      ]
    },
    {
      "name": "defaultMaterial",
      "primitives": [
        {
          "attributes": {
            "NORMAL": 26,
            "POSITION": 25,
            "TANGENT": 27,
            "TEXCOORD_0": 28
          },
          "indices": 29,
          "material": 2,
          "mode": 4
        }
      ]
    },
    {
      "name": "defaultMaterial",
      "primitives": [
        {
          "attributes": {
            "NORMAL": 31,
            "POSITION": 30,
            "TANGENT": 32,
            "TEXCOORD_0": 33
          },
          "indices": 34,
          "material": 1,
          "mode": 4
        }
      ]
    },
    {
      "name": "defaultMaterial",
      "primitives": [
        {
          "attributes": {
            "NORMAL": 36,
            "POSITION": 35,
            "TANGENT": 37,
            "TEXCOORD_0": 38
          },
          "indices": 39,
          "material": 0,
          "mode": 4
        }
      ]
    }
  ],
  "nodes": [
    {
      "children": [
        1
      ],
      "name": "RootNode (gltf orientation matrix)",
      "rotation": [
        -0.70710678118654746,
        -0,
        -0,
        0.70710678118654757
      ]
    },
    {
      "children": [
        2
      ],
      "name": "RootNode (model correction matrix)"
    },
    {
      "children": [
        3,
        5,
        7,
        9,
        11,
        13,
        15,
        17
      ],
      "matrix": [
        1,
        0,
        0,
        0,
        0,
        -4.3711390063094768e-08,
        0.999999999999999,
        0,
        0,
        -0.999999999999999,
        -4.3711390063094768e-08,
        0,
        0,
        0,
        0,
        1
      ],
      "name": "Collada visual scene group"
    },
    {
      "children": [
        4
      ],
      "name": "Canape_Part02"
    },
    {
      "mesh": 0,
      "name": "defaultMaterial"
    },
    {
      "children": [
        6
      ],
      "name": "Canape_Part03"
    },
    {
      "mesh": 1,
      "name": "defaultMaterial"
    },
    {
      "children": [
        8
      ],
      "name": "Canape_Part01"
    },
    {
      "mesh": 2,
      "name": "defaultMaterial"
    },
    {
      "children": [
        10
      ],
      "name": "Coussin005"
    },
    {
      "mesh": 3,
      "name": "defaultMaterial"
    },
    {
      "children": [
        12
      ],
      "name": "Coussin004"
    },
    {
      "mesh": 4,
      "name": "defaultMaterial"
    },
    {
      "children": [
        14
      ],
      "name": "Coussin002"
    },
    {
      "mesh": 5,
      "name": "defaultMaterial"
    },
    {
      "children": [
        16
      ],
      "name": "Coussin001"
    },
    {
      "mesh": 6,
      "name": "defaultMaterial"
    },
    {
      "children": [
        18
      ],
      "name": "Coussin003"
    },
    {
      "mesh": 7,
      "name": "defaultMaterial"
    }
  ],
  "samplers": [
    {
      "magFilter": 9729,
      "minFilter": 9987,
      "wrapS": 10497,
      "wrapT": 10497
    }
  ],
  "scene": 0,
  "scenes": [
    {
      "name": "OSG_Scene",
      "nodes": [
        0
      ]
    }
  ],
  "textures": [
    {
      "sampler": 0,
      "source": 0
    },
    {
      "sampler": 0,
      "source": 1
    },
    {
      "sampler": 0,
      "source": 2
    },
    {
      "sampler": 0,
      "source": 3
    },
    {
      "sampler": 0,
      "source": 4
    },
    {
      "sampler": 0,
      "source": 5
    },
    {
      "sampler": 0,
      "source": 6
    },
    {
      "sampler": 0,
      "source": 7
    },
    {
      "sampler": 0,
      "source": 8
    },
    {
      "sampler": 0,
      "source": 9
    },
    {
      "sampler": 0,
      "source": 10
    },
    {
      "sampler": 0,
      "source": 11
    },
    {
      "sampler": 0,
      "source": 12
    },
    {
      "sampler": 0,
      "source": 13
    },
    {
      "sampler": 0,
      "source": 14
    },
    {
      "sampler": 0,
      "source": 15
    },
    {
      "sampler": 0,
      "source": 16
    },
    {
      "sampler": 0,
      "source": 17
    }
  ]
}

