{
  "accessors": [
    {
      "bufferView": 2,
      "componentType": 5126,
      "count": 299,
      "max": [
        0.9999999403953552,
        1.8333016633987427,
        0.9999998807907104
      ],
      "min": [
        -1.0,
        0.0,
        -1.0000001192092896
      ],
      "type": "VEC3"
    },
    {
      "bufferView": 2,
      "byteOffset": 3588,
      "componentType": 5126,
      "count": 299,
      "max": [
        1.0,
        0.7377113103866577,
        1.0
      ],
      "min": [
        -1.0,
        -0.9097169041633606,
        -1.0
      ],
      "type": "VEC3"
    },
    {
      "bufferView": 1,
      "componentType": 5126,
      "count": 299,
      "max": [
        1.0,
        1.0
      ],
      "min": [
        -1.862645149230957e-07,
        0.01000000536441803
      ],
      "type": "VEC2"
    },
    {
      "bufferView": 0,
      "componentType": 5125,
      "count": 1506,
      "type": "SCALAR"
    },
    {
      "bufferView": 2,
      "byteOffset": 7176,
      "componentType": 5126,
      "count": 125,
      "max": [
        0.9094323515892029,
        1.7164241075515747,
        0.9094322323799133
      ],
      "min": [
        -0.9094322919845581,
        1.7164241075515747,
        -0.9094324111938477
      ],
      "type": "VEC3"
    },
    {
      "bufferView": 2,
      "byteOffset": 8676,
      "componentType": 5126,
      "count": 125,
      "max": [
        0.7342603206634521,
        1.0,
        0.7342603206634521
      ],
      "min": [
        -0.7342603206634521,
        0.6788680553436279,
        -0.7342603206634521
      ],
      "type": "VEC3"
    },
    {
      "bufferView": 1,
      "byteOffset": 2392,
      "componentType": 5126,
      "count": 125,
      "max": [
        1.0,
        1.0000001192092896
      ],
      "min": [
        -1.862645149230957e-07,
        0.9999997615814209
      ],
      "type": "VEC2"
    },
    {
      "bufferView": 0,
      "byteOffset": 6024,
      "componentType": 5125,
      "count": 576,
      "type": "SCALAR"
    },
    {
      "bufferView": 2,
      "byteOffset": 10176,
      "componentType": 5126,
      "count": 411,
      "max": [
        0.9699077606201172,
        7.045656681060791,
        0.3450974225997925
      ],
      "min": [
        -1.0442335605621338,
        1.6059317588806152,
        -0.37740176916122437
      ],
      "type": "VEC3"
    },
    {
      "bufferView": 2,
      "byteOffset": 15108,
      "componentType": 5126,
      "count": 411,
      "max": [
        0.9359238147735596,
        0.283342182636261,
        0.9994584321975708
      ],
      "min": [
        -0.9977812170982361,
        -0.4169279634952545,
        -0.9983397722244263
      ],
      "type": "VEC3"
    },
    {
      "bufferView": 1,
      "byteOffset": 3392,
      "componentType": 5126,
      "count": 411,
      "max": [
        1.0,
        1.0
      ],
      "min": [
        0.0,
        0.0
      ],
      "type": "VEC2"
    },
    {
      "bufferView": 0,
      "byteOffset": 8328,
      "componentType": 5125,
      "count": 1869,
      "type": "SCALAR"
    },
    {
      "bufferView": 2,
      "byteOffset": 20040,
      "componentType": 5126,
      "count": 349,
      "max": [
        0.9999999403953552,
        2.0,
        0.9999998807907104
      ],
      "min": [
        -1.0,
        0.0,
        -1.0000001192092896
      ],
      "type": "VEC3"
    },
    {
      "bufferView": 2,
      "byteOffset": 24228,
      "componentType": 5126,
      "count": 349,
      "max": [
        1.0,
        0.7377113103866577,
        1.0
      ],
      "min": [
        -1.0,
        -0.8903623819351196,
        -1.0
      ],
      "type": "VEC3"
    },
    {
      "bufferView": 1,
      "byteOffset": 6680,
      "componentType": 5126,
      "count": 349,
      "max": [
        1.0,
        1.0
      ],
      "min": [
        -1.862645149230957e-07,
        0.01000000536441803
      ],
      "type": "VEC2"
    },
    {
      "bufferView": 0,
      "byteOffset": 15804,
      "componentType": 5125,
      "count": 1794,
      "type": "SCALAR"
    },
    {
      "bufferView": 2,
      "byteOffset": 28416,
      "componentType": 5126,
      "count": 125,
      "max": [
        0.9094323515892029,
        1.6293810606002808,
        0.9094322323799133
      ],
      "min": [
        -0.9094322919845581,
        1.6293808221817017,
        -0.9094324111938477
      ],
      "type": "VEC3"
    },
    {
      "bufferView": 2,
      "byteOffset": 29916,
      "componentType": 5126,
      "count": 125,
      "max": [
        0.7342603206634521,
        1.0,
        0.7342603206634521
      ],
      "min": [
        -0.7342603206634521,
        0.6788680553436279,
        -0.7342603206634521
      ],
      "type": "VEC3"
    },
    {
      "bufferView": 1,
      "byteOffset": 9472,
      "componentType": 5126,
      "count": 125,
      "max": [
        1.0,
        1.0000001192092896
      ],
      "min": [
        -1.862645149230957e-07,
        0.9999998211860657
      ],
      "type": "VEC2"
    },
    {
      "bufferView": 0,
      "byteOffset": 22980,
      "componentType": 5125,
      "count": 576,
      "type": "SCALAR"
    },
    {
      "bufferView": 2,
      "byteOffset": 31416,
      "componentType": 5126,
      "count": 1725,
      "max": [
        4.46998405456543,
        7.905372619628906,
        3.14787220954895
      ],
      "min": [
        -4.643857955932617,
        1.0022181272506714,
        -3.297229528427124
      ],
      "type": "VEC3"
    },
    {
      "bufferView": 2,
      "byteOffset": 52116,
      "componentType": 5126,
      "count": 1725,
      "max": [
        0.9533180594444275,
        0.6750504374504089,
        0.9999474287033081
      ],
      "min": [
        -0.9997334480285645,
        -0.9997483491897583,
        -0.9997378587722778
      ],
      "type": "VEC3"
    },
    {
      "bufferView": 1,
      "byteOffset": 10472,
      "componentType": 5126,
      "count": 1725,
      "max": [
        1.0,
        1.0
      ],
      "min": [
        0.0,
        0.0
      ],
      "type": "VEC2"
    },
    {
      "bufferView": 0,
      "byteOffset": 25284,
      "componentType": 5125,
      "count": 7485,
      "type": "SCALAR"
    },
    {
      "bufferView": 2,
      "byteOffset": 72816,
      "componentType": 5126,
      "count": 224,
      "max": [
        1.2939879894256592,
        2.0518381595611572,
        1.2939878702163696
      ],
      "min": [
        -1.2939879894256592,
        0.0,
        -1.2939881086349487
      ],
      "type": "VEC3"
    },
    {
      "bufferView": 2,
      "byteOffset": 75504,
      "componentType": 5126,
      "count": 224,
      "max": [
        0.9898920655250549,
        0.8010023236274719,
        0.9898920655250549
      ],
      "min": [
        -0.9898920655250549,
        -0.7294211387634277,
        -0.9898920655250549
      ],
      "type": "VEC3"
    },
    {
      "bufferView": 1,
      "byteOffset": 24272,
      "componentType": 5126,
      "count": 224,
      "max": [
        1.0,
        1.0000001192092896
      ],
      "min": [
        -1.8626452913395042e-07,
        0.01000000536441803
      ],
      "type": "VEC2"
    },
    {
      "bufferView": 0,
      "byteOffset": 55224,
      "componentType": 5125,
      "count": 1074,
      "type": "SCALAR"
    },
    {
      "bufferView": 2,
      "byteOffset": 78192,
      "componentType": 5126,
      "count": 75,
      "max": [
        1.132702112197876,
        1.8359378576278687,
        1.1327018737792969
      ],
      "min": [
        -1.1327016353607178,
        1.8253631591796875,
        -1.1327019929885864
      ],
      "type": "VEC3"
    },
    {
      "bufferView": 2,
      "byteOffset": 79092,
      "componentType": 5126,
      "count": 75,
      "max": [
        0.9797792434692383,
        1.0,
        0.9797792434692383
      ],
      "min": [
        -0.9797792434692383,
        0.20008137822151184,
        -0.9797792434692383
      ],
      "type": "VEC3"
    },
    {
      "bufferView": 1,
      "byteOffset": 26064,
      "componentType": 5126,
      "count": 75,
      "max": [
        1.0,
        1.0000001192092896
      ],
      "min": [
        -1.8626452913395042e-07,
        0.9999999403953552
      ],
      "type": "VEC2"
    },
    {
      "bufferView": 0,
      "byteOffset": 59520,
      "componentType": 5125,
      "count": 288,
      "type": "SCALAR"
    },
    {
      "bufferView": 2,
      "byteOffset": 79992,
      "componentType": 5126,
      "count": 2646,
      "max": [
        2.863537311553955,
        11.729891777038574,
        2.61171817779541
      ],
      "min": [
        -2.886596441268921,
        1.2363014221191406,
        -3.192121744155884
      ],
      "type": "VEC3"
    },
    {
      "bufferView": 2,
      "byteOffset": 111744,
      "componentType": 5126,
      "count": 2646,
      "max": [
        0.9554734826087952,
        0.9885880947113037,
        1.0
      ],
      "min": [
        -0.9822269082069397,
        -1.0,
        -0.9868596792221069
      ],
      "type": "VEC3"
    },
    {
      "bufferView": 1,
      "byteOffset": 26664,
      "componentType": 5126,
      "count": 2646,
      "max": [
        1.0,
        1.0
      ],
      "min": [
        0.0,
        0.0
      ],
      "type": "VEC2"
    },
    {
      "bufferView": 0,
      "byteOffset": 60672,
      "componentType": 5125,
      "count": 11400,
      "type": "SCALAR"
    }
  ],
  "asset": {
    "extras": {
      "author": "polza (https://sketchfab.com/8.in.glasses)",
      "license": "CC-BY-4.0 (http://creativecommons.org/licenses/by/4.0/)",
      "source": "https://sketchfab.com/3d-models/office-plants-free-cb1b515ef96b4bdda0f19393d22c6a54",
      "title": "Office plants (FREE)"
    },
    "generator": "Sketchfab-11.45.0",
    "version": "2.0"
  },
  "bufferViews": [
    {
      "buffer": 0,
      "byteLength": 106272,
      "name": "floatBufferViews",
      "target": 34963
    },
    {
      "buffer": 0,
      "byteLength": 47832,
      "byteOffset": 106272,
      "byteStride": 8,
      "name": "floatBufferViews",
      "target": 34962
    },
    {
      "buffer": 0,
      "byteLength": 143496,
      "byteOffset": 154104,
      "byteStride": 12,
      "name": "floatBufferViews",
      "target": 34962
    }
  ],
  "buffers": [
    {
      "byteLength": 297600,
      "uri": "grass.bin"
    }
  ],
  "materials": [
    {
      "doubleSided": true,
      "name": "00_1",
      "pbrMetallicRoughness": {
        "baseColorFactor": [
          0.420033,
          0.420033,
          0.420033,
          1.0
        ],
        "metallicFactor": 0.0
      }
    },
    {
      "doubleSided": true,
      "name": "00_2",
      "pbrMetallicRoughness": {
        "baseColorFactor": [
          0.011086499999999999,
          0.00362573,
          0.00387835,
          1.0
        ],
        "metallicFactor": 0.0
      }
    },
    {
      "doubleSided": true,
      "name": "material",
      "pbrMetallicRoughness": {
        "baseColorFactor": [
          0.0826127,
          0.132867,
          0.0643151,
          1.0
        ],
        "metallicFactor": 0.0
      }
    },
    {
      "doubleSided": true,
      "name": "material_3",
      "pbrMetallicRoughness": {
        "baseColorFactor": [
          0.0,
          0.10288,
          0.0305552,
          1.0
        ],
        "metallicFactor": 0.0
      }
    },
    {
      "doubleSided": true,
      "name": "material_4",
      "pbrMetallicRoughness": {
        "baseColorFactor": [
          0.0,
          0.10288,
          0.0305552,
          1.0
        ],
        "metallicFactor": 0.0
      }
    }
  ],
  "meshes": [
    {
      "name": "Object_0",
      "primitives": [
        {
          "attributes": {
            "NORMAL": 1,
            "POSITION": 0,
            "TEXCOORD_0": 2
          },
          "indices": 3,
          "material": 0,
          "mode": 4
        }
      ]
    },
    {
      "name": "Object_1",
      "primitives": [
        {
          "attributes": {
            "NORMAL": 5,
            "POSITION": 4,
            "TEXCOORD_0": 6
          },
          "indices": 7,
          "material": 1,
          "mode": 4
        }
      ]
    },
    {
      "name": "Object_2",
      "primitives": [
        {
          "attributes": {
            "NORMAL": 9,
            "POSITION": 8,
            "TEXCOORD_0": 10
          },
          "indices": 11,
          "material": 2,
          "mode": 4
        }
      ]
    },
    {
      "name": "Object_3",
      "primitives": [
        {
          "attributes": {
            "NORMAL": 13,
            "POSITION": 12,
            "TEXCOORD_0": 14
          },
          "indices": 15,
          "material": 0,
          "mode": 4
        }
      ]
    },
    {
      "name": "Object_4",
      "primitives": [
        {
          "attributes": {
            "NORMAL": 17,
            "POSITION": 16,
            "TEXCOORD_0": 18
          },
          "indices": 19,
          "material": 1,
          "mode": 4
        }
      ]
    },
    {
      "name": "Object_5",
      "primitives": [
        {
          "attributes": {
            "NORMAL": 21,
            "POSITION": 20,
            "TEXCOORD_0": 22
          },
          "indices": 23,
          "material": 3,
          "mode": 4
        }
      ]
    },
    {
      "name": "Object_6",
      "primitives": [
        {
          "attributes": {
            "NORMAL": 25,
            "POSITION": 24,
            "TEXCOORD_0": 26
          },
          "indices": 27,
          "material": 0,
          "mode": 4
        }
      ]
    },
    {
      "name": "Object_7",
      "primitives": [
        {
          "attributes": {
            "NORMAL": 29,
            "POSITION": 28,
            "TEXCOORD_0": 30
          },
          "indices": 31,
          "material": 1,
          "mode": 4
        }
      ]
    },
    {
      "name": "Object_8",
      "primitives": [
        {
          "attributes": {
            "NORMAL": 33,
            "POSITION": 32,
            "TEXCOORD_0": 34
          },
          "indices": 35,
          "material": 4,
          "mode": 4
        }
      ]
    }
  ],
  "nodes": [
    {
      "children": [
        1
      ],
      "matrix": [
        1.0,
        0.0,
        0.0,
        0.0,
        0.0,
        2.220446049250313e-16,
        -1.0,
        0.0,
        0.0,
        1.0,
        2.220446049250313e-16,
        0.0,
        0.0,
        0.0,
        0.0,
        1.0
      ],
      "name": "Sketchfab_model"
    },
    {
      "children": [
        2
      ],
      "name": "root"
    },
    {
      "children": [
        3,
        7,
        11
      ],
      "matrix": [
        1.0,
        0.0,
        0.0,
        0.0,
        0.0,
        2.220446049250313e-16,
        1.0,
        0.0,
        0.0,
        -1.0,
        2.220446049250313e-16,
        0.0,
        0.0,
        0.0,
        0.0,
        1.0
      ],
      "name": "GLTF_SceneRootNode"
    },
    {
      "children": [
        4,
        5,
        6
      ],
      "matrix": [
        0.963092565536499,
        0.0,
        0.0,
        0.0,
        0.0,
        0.963092565536499,
        0.0,
        0.0,
        0.0,
        0.0,
        0.963092565536499,
        0.0,
        -5.0,
        0.0,
        0.0,
        1.0
      ],
      "name": "01_1"
    },
    {
      "mesh": 0,
      "name": "Object_4"
    },
    {
      "mesh": 1,
      "name": "Object_5"
    },
    {
      "mesh": 2,
      "name": "Object_6"
    },
    {
      "children": [
        8,
        9,
        10
      ],
      "matrix": [
        0.6724521517753601,
        0.0,
        0.0,
        0.0,
        0.0,
        0.6058217287063599,
        0.0,
        0.0,
        0.0,
        0.0,
        0.6724521517753601,
        0.0,
        0.0,
        0.0,
        0.0,
        1.0
      ],
      "name": "02_2"
    },
    {
      "mesh": 3,
      "name": "Object_8"
    },
    {
      "mesh": 4,
      "name": "Object_9"
    },
    {
      "mesh": 5,
      "name": "Object_10"
    },
    {
      "children": [
        12,
        13,
        14
      ],
      "matrix": [
        0.7765190005302429,
        0.0,
        0.0,
        0.0,
        0.0,
        0.8058931231498718,
        0.0,
        0.0,
        0.0,
        0.0,
        0.7765190005302429,
        0.0,
        5.0,
        0.0,
        0.0,
        1.0
      ],
      "name": "03_3"
    },
    {
      "mesh": 6,
      "name": "Object_12"
    },
    {
      "mesh": 7,
      "name": "Object_13"
    },
    {
      "mesh": 8,
      "name": "Object_14"
    }
  ],
  "scene": 0,
  "scenes": [
    {
      "name": "Sketchfab_Scene",
      "nodes": [
        0
      ]
    }
  ]
}
