{
  "accessors": [
    {
      "bufferView": 2,
      "componentType": 5126,
      "count": 3852,
      "max": [
        0.4954378604888916,
        0.003000000026077032,
        0.3361373543739319
      ],
      "min": [
        -0.5134952068328857,
        0.0,
        -0.333991676568985
      ],
      "type": "VEC3"
    },
    {
      "bufferView": 2,
      "byteOffset": 46224,
      "componentType": 5126,
      "count": 3852,
      "max": [
        0.9999943375587463,
        1.0,
        0.999969482421875
      ],
      "min": [
        -1.0,
        -1.0,
        -1.0
      ],
      "type": "VEC3"
    },
    {
      "bufferView": 1,
      "componentType": 5126,
      "count": 3852,
      "max": [
        0.9780300855636597,
        0.9696239829063416
      ],
      "min": [
        0.021032989025115967,
        0.04543892294168472
      ],
      "type": "VEC2"
    },
    {
      "bufferView": 1,
      "byteOffset": 30816,
      "componentType": 5126,
      "count": 3852,
      "max": [
        0.9780300855636597,
        0.9696239829063416
      ],
      "min": [
        0.021032989025115967,
        0.04543892294168472
      ],
      "type": "VEC2"
    },
    {
      "bufferView": 0,
      "componentType": 5125,
      "count": 6072,
      "type": "SCALAR"
    },
    {
      "bufferView": 2,
      "byteOffset": 92448,
      "componentType": 5126,
      "count": 65532,
      "max": [
        0.025430727750062943,
        0.0020323414355516434,
        0.3321933150291443
      ],
      "min": [
        -0.012705768458545208,
        -0.002739550778642297,
        -0.3256830871105194
      ],
      "type": "VEC3"
    },
    {
      "bufferView": 2,
      "byteOffset": 878832,
      "componentType": 5126,
      "count": 65532,
      "max": [
        1.0,
        1.0,
        1.0
      ],
      "min": [
        -1.0,
        -0.9999992847442627,
        -1.0
      ],
      "type": "VEC3"
    },
    {
      "bufferView": 1,
      "byteOffset": 61632,
      "componentType": 5126,
      "count": 65532,
      "max": [
        0.10000000149011612,
        0.09999990463256836
      ],
      "min": [
        0.0,
        0.0
      ],
      "type": "VEC2"
    },
    {
      "bufferView": 0,
      "byteOffset": 24288,
      "componentType": 5125,
      "count": 378789,
      "type": "SCALAR"
    },
    {
      "bufferView": 2,
      "byteOffset": 1665216,
      "componentType": 5126,
      "count": 65532,
      "max": [
        0.02542814239859581,
        0.002189361723139882,
        0.3311694860458374
      ],
      "min": [
        -0.012351705692708492,
        -0.0025306260213255882,
        -0.32927602529525757
      ],
      "type": "VEC3"
    },
    {
      "bufferView": 2,
      "byteOffset": 2451600,
      "componentType": 5126,
      "count": 65532,
      "max": [
        1.0,
        1.0,
        1.0
      ],
      "min": [
        -1.0,
        -1.0,
        -1.0
      ],
      "type": "VEC3"
    },
    {
      "bufferView": 1,
      "byteOffset": 585888,
      "componentType": 5126,
      "count": 65532,
      "max": [
        0.10000000149011612,
        0.09999990463256836
      ],
      "min": [
        0.0,
        0.0
      ],
      "type": "VEC2"
    },
    {
      "bufferView": 0,
      "byteOffset": 1539444,
      "componentType": 5125,
      "count": 380151,
      "type": "SCALAR"
    },
    {
      "bufferView": 2,
      "byteOffset": 3237984,
      "componentType": 5126,
      "count": 28001,
      "max": [
        0.02545320987701416,
        0.002149734413251281,
        0.33140307664871216
      ],
      "min": [
        -0.012461957521736622,
        -0.0025356996338814497,
        -0.32802313566207886
      ],
      "type": "VEC3"
    },
    {
      "bufferView": 2,
      "byteOffset": 3573996,
      "componentType": 5126,
      "count": 28001,
      "max": [
        1.0,
        0.9999995231628418,
        1.0
      ],
      "min": [
        -1.0,
        -1.0,
        -0.9999926090240479
      ],
      "type": "VEC3"
    },
    {
      "bufferView": 1,
      "byteOffset": 1110144,
      "componentType": 5126,
      "count": 28001,
      "max": [
        0.10000000149011612,
        0.09999990463256836
      ],
      "min": [
        0.0,
        0.0
      ],
      "type": "VEC2"
    },
    {
      "bufferView": 0,
      "byteOffset": 3060048,
      "componentType": 5125,
      "count": 155103,
      "type": "SCALAR"
    },
    {
      "bufferView": 2,
      "byteOffset": 3910008,
      "componentType": 5126,
      "count": 65532,
      "max": [
        0.013082548975944519,
        0.00221025082282722,
        0.3339349925518036
      ],
      "min": [
        -0.022417142987251282,
        -0.0025646763388067484,
        -0.33415937423706055
      ],
      "type": "VEC3"
    },
    {
      "bufferView": 2,
      "byteOffset": 4696392,
      "componentType": 5126,
      "count": 65532,
      "max": [
        1.0,
        1.0,
        1.0
      ],
      "min": [
        -1.0,
        -1.0,
        -1.0
      ],
      "type": "VEC3"
    },
    {
      "bufferView": 1,
      "byteOffset": 1334152,
      "componentType": 5126,
      "count": 65532,
      "max": [
        0.10000000149011612,
        0.09999990463256836
      ],
      "min": [
        0.0,
        0.0
      ],
      "type": "VEC2"
    },
    {
      "bufferView": 0,
      "byteOffset": 3680460,
      "componentType": 5125,
      "count": 378633,
      "type": "SCALAR"
    },
    {
      "bufferView": 2,
      "byteOffset": 5482776,
      "componentType": 5126,
      "count": 65532,
      "max": [
        0.01265129167586565,
        0.0024715515319257975,
        0.33500346541404724
      ],
      "min": [
        -0.022483088076114655,
        -0.002636020304635167,
        -0.33170285820961
      ],
      "type": "VEC3"
    },
    {
      "bufferView": 2,
      "byteOffset": 6269160,
      "componentType": 5126,
      "count": 65532,
      "max": [
        1.0,
        1.0,
        1.0
      ],
      "min": [
        -1.0,
        -1.0,
        -1.0
      ],
      "type": "VEC3"
    },
    {
      "bufferView": 1,
      "byteOffset": 1858408,
      "componentType": 5126,
      "count": 65532,
      "max": [
        0.10000000149011612,
        0.09999990463256836
      ],
      "min": [
        0.0,
        0.0
      ],
      "type": "VEC2"
    },
    {
      "bufferView": 0,
      "byteOffset": 5194992,
      "componentType": 5125,
      "count": 380007,
      "type": "SCALAR"
    },
    {
      "bufferView": 2,
      "byteOffset": 7055544,
      "componentType": 5126,
      "count": 28072,
      "max": [
        0.013255507685244083,
        0.0021626842208206654,
        0.3341733515262604
      ],
      "min": [
        -0.022501790896058083,
        -0.002844944829121232,
        -0.3339959383010864
      ],
      "type": "VEC3"
    },
    {
      "bufferView": 2,
      "byteOffset": 7392408,
      "componentType": 5126,
      "count": 28072,
      "max": [
        1.0,
        1.0,
        1.0
      ],
      "min": [
        -1.0,
        -0.9999983310699463,
        -1.0
      ],
      "type": "VEC3"
    },
    {
      "bufferView": 1,
      "byteOffset": 2382664,
      "componentType": 5126,
      "count": 28072,
      "max": [
        0.10000000149011612,
        0.09999990463256836
      ],
      "min": [
        0.0,
        0.0
      ],
      "type": "VEC2"
    },
    {
      "bufferView": 0,
      "byteOffset": 6715020,
      "componentType": 5125,
      "count": 155481,
      "type": "SCALAR"
    }
  ],
  "asset": {
    "extras": {
      "author": "mfb64 (https://sketchfab.com/mfb64)",
      "license": "CC-BY-4.0 (http://creativecommons.org/licenses/by/4.0/)",
      "source": "https://sketchfab.com/3d-models/striped-persian-jajim-kilim-7259d3abda3c4a0c89bf46995d54f1ee",
      "title": "Striped Persian Jajim Kilim"
    },
    "generator": "Sketchfab-11.64.0",
    "version": "2.0"
  },
  "bufferViews": [
    {
      "buffer": 0,
      "byteLength": 7336944,
      "name": "floatBufferViews",
      "target": 34963
    },
    {
      "buffer": 0,
      "byteLength": 2607240,
      "byteOffset": 7336944,
      "byteStride": 8,
      "name": "floatBufferViews",
      "target": 34962
    },
    {
      "buffer": 0,
      "byteLength": 7729272,
      "byteOffset": 9944184,
      "byteStride": 12,
      "name": "floatBufferViews",
      "target": 34962
    }
  ],
  "buffers": [
    {
      "byteLength": 17673456,
      "uri": "rug.bin"
    }
  ],
  "images": [
    {
      "uri": "rug/kilim_baseColor.jpeg"
    }
  ],
  "materials": [
    {
      "doubleSided": true,
      "name": "kilim",
      "pbrMetallicRoughness": {
        "baseColorTexture": {
          "index": 0
        },
        "metallicFactor": 0.0,
        "roughnessFactor": 0.8
      }
    },
    {
      "doubleSided": true,
      "name": "VELVET-GREEN__Budapest",
      "pbrMetallicRoughness": {
        "baseColorFactor": [
          0.6255506193977335,
          0.5989399793300114,
          0.4395170272594914,
          1.0
        ],
        "metallicFactor": 0.0,
        "roughnessFactor": 0.95
      }
    }
  ],
  "meshes": [
    {
      "name": "Object_0",
      "primitives": [
        {
          "attributes": {
            "NORMAL": 1,
            "POSITION": 0,
            "TEXCOORD_0": 2,
            "TEXCOORD_1": 3
          },
          "indices": 4,
          "material": 0,
          "mode": 4
        }
      ]
    },
    {
      "name": "Object_1",
      "primitives": [
        {
          "attributes": {
            "NORMAL": 6,
            "POSITION": 5,
            "TEXCOORD_0": 7
          },
          "indices": 8,
          "material": 1,
          "mode": 4
        }
      ]
    },
    {
      "name": "Object_2",
      "primitives": [
        {
          "attributes": {
            "NORMAL": 10,
            "POSITION": 9,
            "TEXCOORD_0": 11
          },
          "indices": 12,
          "material": 1,
          "mode": 4
        }
      ]
    },
    {
      "name": "Object_3",
      "primitives": [
        {
          "attributes": {
            "NORMAL": 14,
            "POSITION": 13,
            "TEXCOORD_0": 15
          },
          "indices": 16,
          "material": 1,
          "mode": 4
        }
      ]
    },
    {
      "name": "Object_4",
      "primitives": [
        {
          "attributes": {
            "NORMAL": 18,
            "POSITION": 17,
            "TEXCOORD_0": 19
          },
          "indices": 20,
          "material": 1,
          "mode": 4
        }
      ]
    },
    {
      "name": "Object_5",
      "primitives": [
        {
          "attributes": {
            "NORMAL": 22,
            "POSITION": 21,
            "TEXCOORD_0": 23
          },
          "indices": 24,
          "material": 1,
          "mode": 4
        }
      ]
    },
    {
      "name": "Object_6",
      "primitives": [
        {
          "attributes": {
            "NORMAL": 26,
            "POSITION": 25,
            "TEXCOORD_0": 27
          },
          "indices": 28,
          "material": 1,
          "mode": 4
        }
      ]
    }
  ],
  "nodes": [
    {
      "children": [
        1
      ],
      "matrix": [
        1.0,
        0.0,
        0.0,
        0.0,
        0.0,
        2.220446049250313e-16,
        -1.0,
        0.0,
        0.0,
        1.0,
        2.220446049250313e-16,
        0.0,
        0.0,
        0.0,
        0.0,
        1.0
      ],
      "name": "Sketchfab_model"
    },
    {
      "children": [
        2
      ],
      "name": "root"
    },
    {
      "children": [
        3
      ],
      "matrix": [
        1.0,
        0.0,
        0.0,
        0.0,
        0.0,
        2.220446049250313e-16,
        1.0,
        0.0,
        0.0,
        -1.0,
        2.220446049250313e-16,
        0.0,
        0.0,
        0.0,
        0.0,
        1.0
      ],
      "name": "GLTF_SceneRootNode"
    },
    {
      "children": [
        4,
        5,
        9
      ],
      "name": "Striped Persian Jajim Kilim_2"
    },
    {
      "mesh": 0,
      "name": "Object_4"
    },
    {
      "children": [
        6,
        7,
        8
      ],
      "matrix": [
        1.0,
        0.0,
        0.0,
        0.0,
        0.0,
        1.0,
        0.0,
        0.0,
        0.0,
        0.0,
        1.0,
        0.0,
        -0.5235777497291565,
        0.002037927508354187,
        -0.0012484120670706034,
        1.0
      ],
      "name": "frange1_0"
    },
    {
      "mesh": 1,
      "name": "Object_6"
    },
    {
      "mesh": 2,
      "name": "Object_7"
    },
    {
      "mesh": 3,
      "name": "Object_8"
    },
    {
      "children": [
        10,
        11,
        12
      ],
      "matrix": [
        1.0,
        0.0,
        0.0,
        0.0,
        0.0,
        1.0,
        0.0,
        0.0,
        0.0,
        0.0,
        1.0,
        0.0,
        0.503912627696991,
        0.0017686465289443731,
        0.0058565689250826836,
        1.0
      ],
      "name": "frange2_1"
    },
    {
      "mesh": 4,
      "name": "Object_10"
    },
    {
      "mesh": 5,
      "name": "Object_11"
    },
    {
      "mesh": 6,
      "name": "Object_12"
    }
  ],
  "samplers": [
    {
      "magFilter": 9729,
      "minFilter": 9987,
      "wrapS": 10497,
      "wrapT": 10497
    }
  ],
  "scene": 0,
  "scenes": [
    {
      "name": "Sketchfab_Scene",
      "nodes": [
        0
      ]
    }
  ],
  "textures": [
    {
      "sampler": 0,
      "source": 0
    }
  ]
}
