{
  "accessors": [
    {
      "bufferView": 2,
      "componentType": 5126,
      "count": 7842,
      "max": [
        1.2247692346572876,
        0.003000000026077032,
        0.7958076000213623
      ],
      "min": [
        -1.2373296022415161,
        0.0,
        -0.8101091384887695
      ],
      "type": "VEC3"
    },
    {
      "bufferView": 2,
      "byteOffset": 94104,
      "componentType": 5126,
      "count": 7842,
      "max": [
        0.9999597668647766,
        1.0,
        1.0
      ],
      "min": [
        -1.0,
        -1.0,
        -0.9999905824661255
      ],
      "type": "VEC3"
    },
    {
      "bufferView": 1,
      "componentType": 5126,
      "count": 7842,
      "max": [
        0.9885044693946838,
        0.976905882358551
      ],
      "min": [
        0.01941773109138012,
        0.028766237199306488
      ],
      "type": "VEC2"
    },
    {
      "bufferView": 1,
      "byteOffset": 62736,
      "componentType": 5126,
      "count": 7842,
      "max": [
        0.9885044693946838,
        0.976905882358551
      ],
      "min": [
        0.01941773109138012,
        0.028766237199306488
      ],
      "type": "VEC2"
    },
    {
      "bufferView": 0,
      "componentType": 5125,
      "count": 12468,
      "type": "SCALAR"
    },
    {
      "bufferView": 2,
      "byteOffset": 188208,
      "componentType": 5126,
      "count": 65532,
      "max": [
        0.07202357053756714,
        0.004671664908528328,
        0.7092742919921875
      ],
      "min": [
        -0.023172661662101746,
        -0.005845659878104925,
        -0.7022051811218262
      ],
      "type": "VEC3"
    },
    {
      "bufferView": 2,
      "byteOffset": 974592,
      "componentType": 5126,
      "count": 65532,
      "max": [
        0.9998838901519775,
        0.9999980926513672,
        0.9999967813491821
      ],
      "min": [
        -0.9999754428863525,
        -0.9999959468841553,
        -0.9999655485153198
      ],
      "type": "VEC3"
    },
    {
      "bufferView": 1,
      "byteOffset": 125472,
      "componentType": 5126,
      "count": 65532,
      "max": [
        0.10000000149011612,
        0.09999990463256836
      ],
      "min": [
        0.0,
        0.0
      ],
      "type": "VEC2"
    },
    {
      "bufferView": 0,
      "byteOffset": 49872,
      "componentType": 5125,
      "count": 370137,
      "type": "SCALAR"
    },
    {
      "bufferView": 2,
      "byteOffset": 1760976,
      "componentType": 5126,
      "count": 65532,
      "max": [
        0.07211040705442429,
        0.004460535477846861,
        0.7047271132469177
      ],
      "min": [
        -0.023335685953497887,
        -0.0052476259879767895,
        -0.7070583701133728
      ],
      "type": "VEC3"
    },
    {
      "bufferView": 2,
      "byteOffset": 2547360,
      "componentType": 5126,
      "count": 65532,
      "max": [
        0.999933123588562,
        0.999997615814209,
        0.9999717473983765
      ],
      "min": [
        -0.9999512434005737,
        -0.9999949932098389,
        -0.9999817609786987
      ],
      "type": "VEC3"
    },
    {
      "bufferView": 1,
      "byteOffset": 649728,
      "componentType": 5126,
      "count": 65532,
      "max": [
        0.10000000149011612,
        0.09999990463256836
      ],
      "min": [
        0.0,
        0.0
      ],
      "type": "VEC2"
    },
    {
      "bufferView": 0,
      "byteOffset": 1530420,
      "componentType": 5125,
      "count": 369492,
      "type": "SCALAR"
    },
    {
      "bufferView": 2,
      "byteOffset": 3333744,
      "componentType": 5126,
      "count": 24952,
      "max": [
        0.07200958579778671,
        0.004442640580236912,
        0.7075498700141907
      ],
      "min": [
        -0.02326555922627449,
        -0.00521954195573926,
        -0.6995665431022644
      ],
      "type": "VEC3"
    },
    {
      "bufferView": 2,
      "byteOffset": 3633168,
      "componentType": 5126,
      "count": 24952,
      "max": [
        0.9999691247940063,
        0.9999904632568359,
        0.9999876022338867
      ],
      "min": [
        -0.9999512434005737,
        -0.9999904632568359,
        -0.9999829530715942
      ],
      "type": "VEC3"
    },
    {
      "bufferView": 1,
      "byteOffset": 1173984,
      "componentType": 5126,
      "count": 24952,
      "max": [
        0.10000000149011612,
        0.09999990463256836
      ],
      "min": [
        0.0,
        0.0
      ],
      "type": "VEC2"
    },
    {
      "bufferView": 0,
      "byteOffset": 3008388,
      "componentType": 5125,
      "count": 131316,
      "type": "SCALAR"
    },
    {
      "bufferView": 2,
      "byteOffset": 3932592,
      "componentType": 5126,
      "count": 65532,
      "max": [
        0.035582538694143295,
        0.004907997325062752,
        0.7082470655441284
      ],
      "min": [
        -0.0455169714987278,
        -0.006070550065487623,
        -0.7181503176689148
      ],
      "type": "VEC3"
    },
    {
      "bufferView": 2,
      "byteOffset": 4718976,
      "componentType": 5126,
      "count": 65532,
      "max": [
        0.9996799230575562,
        0.9999992847442627,
        0.999998927116394
      ],
      "min": [
        -0.9999951124191284,
        -1.0,
        -0.9999954700469971
      ],
      "type": "VEC3"
    },
    {
      "bufferView": 1,
      "byteOffset": 1373600,
      "componentType": 5126,
      "count": 65532,
      "max": [
        0.10000000149011612,
        0.09999990463256836
      ],
      "min": [
        0.0,
        0.0
      ],
      "type": "VEC2"
    },
    {
      "bufferView": 0,
      "byteOffset": 3533652,
      "componentType": 5125,
      "count": 370497,
      "type": "SCALAR"
    },
    {
      "bufferView": 2,
      "byteOffset": 5505360,
      "componentType": 5126,
      "count": 65532,
      "max": [
        0.0350491926074028,
        0.004687794949859381,
        0.7048038244247437
      ],
      "min": [
        -0.04551642760634422,
        -0.005624745972454548,
        -0.7146568298339844
      ],
      "type": "VEC3"
    },
    {
      "bufferView": 2,
      "byteOffset": 6291744,
      "componentType": 5126,
      "count": 65532,
      "max": [
        0.9999896287918091,
        0.9999890327453613,
        0.9999831914901733
      ],
      "min": [
        -0.9996210336685181,
        -0.9999990463256836,
        -0.9999706745147705
      ],
      "type": "VEC3"
    },
    {
      "bufferView": 1,
      "byteOffset": 1897856,
      "componentType": 5126,
      "count": 65532,
      "max": [
        0.10000000149011612,
        0.09999990463256836
      ],
      "min": [
        0.0,
        0.0
      ],
      "type": "VEC2"
    },
    {
      "bufferView": 0,
      "byteOffset": 5015640,
      "componentType": 5125,
      "count": 370983,
      "type": "SCALAR"
    },
    {
      "bufferView": 2,
      "byteOffset": 7078128,
      "componentType": 5126,
      "count": 24858,
      "max": [
        0.03557156026363373,
        0.005194853991270065,
        0.7095352411270142
      ],
      "min": [
        -0.045475736260414124,
        -0.005505296401679516,
        -0.7142825126647949
      ],
      "type": "VEC3"
    },
    {
      "bufferView": 2,
      "byteOffset": 7376424,
      "componentType": 5126,
      "count": 24858,
      "max": [
        0.9999071359634399,
        0.9999974966049194,
        0.9999440908432007
      ],
      "min": [
        -0.9998135566711426,
        -0.9999897480010986,
        -0.9999421834945679
      ],
      "type": "VEC3"
    },
    {
      "bufferView": 1,
      "byteOffset": 2422112,
      "componentType": 5126,
      "count": 24858,
      "max": [
        0.10000000149011612,
        0.09999990463256836
      ],
      "min": [
        0.0,
        0.0
      ],
      "type": "VEC2"
    },
    {
      "bufferView": 0,
      "byteOffset": 6499572,
      "componentType": 5125,
      "count": 130455,
      "type": "SCALAR"
    }
  ],
  "asset": {
    "extras": {
      "author": "mfb64 (https://sketchfab.com/mfb64)",
      "license": "CC-BY-4.0 (http://creativecommons.org/licenses/by/4.0/)",
      "source": "https://sketchfab.com/3d-models/persian-old-qashqai-kilim-c8124eef7ac3407bae33fdb2203f4588",
      "title": "Persian Old Qashqai Kilim"
    },
    "generator": "Sketchfab-11.64.0",
    "version": "2.0"
  },
  "bufferViews": [
    {
      "buffer": 0,
      "byteLength": 7021392,
      "name": "floatBufferViews",
      "target": 34963
    },
    {
      "buffer": 0,
      "byteLength": 2620976,
      "byteOffset": 7021392,
      "byteStride": 8,
      "name": "floatBufferViews",
      "target": 34962
    },
    {
      "buffer": 0,
      "byteLength": 7674720,
      "byteOffset": 9642368,
      "byteStride": 12,
      "name": "floatBufferViews",
      "target": 34962
    }
  ],
  "buffers": [
    {
      "byteLength": 17317088,
      "uri": "rug2.bin"
    }
  ],
  "images": [
    {
      "uri": "rug2/kilim_baseColor.jpeg"
    }
  ],
  "materials": [
    {
      "doubleSided": true,
      "name": "kilim",
      "pbrMetallicRoughness": {
        "baseColorTexture": {
          "index": 0
        },
        "metallicFactor": 0.0,
        "roughnessFactor": 0.8
      }
    },
    {
      "doubleSided": true,
      "name": "VELVET-GREEN__Budapest",
      "pbrMetallicRoughness": {
        "baseColorFactor": [
          0.396108,
          0.268259,
          0.161575,
          1.0
        ],
        "metallicFactor": 0.0,
        "roughnessFactor": 0.95
      }
    }
  ],
  "meshes": [
    {
      "name": "Object_0",
      "primitives": [
        {
          "attributes": {
            "NORMAL": 1,
            "POSITION": 0,
            "TEXCOORD_0": 2,
            "TEXCOORD_1": 3
          },
          "indices": 4,
          "material": 0,
          "mode": 4
        }
      ]
    },
    {
      "name": "Object_1",
      "primitives": [
        {
          "attributes": {
            "NORMAL": 6,
            "POSITION": 5,
            "TEXCOORD_0": 7
          },
          "indices": 8,
          "material": 1,
          "mode": 4
        }
      ]
    },
    {
      "name": "Object_2",
      "primitives": [
        {
          "attributes": {
            "NORMAL": 10,
            "POSITION": 9,
            "TEXCOORD_0": 11
          },
          "indices": 12,
          "material": 1,
          "mode": 4
        }
      ]
    },
    {
      "name": "Object_3",
      "primitives": [
        {
          "attributes": {
            "NORMAL": 14,
            "POSITION": 13,
            "TEXCOORD_0": 15
          },
          "indices": 16,
          "material": 1,
          "mode": 4
        }
      ]
    },
    {
      "name": "Object_4",
      "primitives": [
        {
          "attributes": {
            "NORMAL": 18,
            "POSITION": 17,
            "TEXCOORD_0": 19
          },
          "indices": 20,
          "material": 1,
          "mode": 4
        }
      ]
    },
    {
      "name": "Object_5",
      "primitives": [
        {
          "attributes": {
            "NORMAL": 22,
            "POSITION": 21,
            "TEXCOORD_0": 23
          },
          "indices": 24,
          "material": 1,
          "mode": 4
        }
      ]
    },
    {
      "name": "Object_6",
      "primitives": [
        {
          "attributes": {
            "NORMAL": 26,
            "POSITION": 25,
            "TEXCOORD_0": 27
          },
          "indices": 28,
          "material": 1,
          "mode": 4
        }
      ]
    }
  ],
  "nodes": [
    {
      "children": [
        1
      ],
      "matrix": [
        1.0,
        0.0,
        0.0,
        0.0,
        0.0,
        2.220446049250313e-16,
        -1.0,
        0.0,
        0.0,
        1.0,
        2.220446049250313e-16,
        0.0,
        0.0,
        0.0,
        0.0,
        1.0
      ],
      "name": "Sketchfab_model"
    },
    {
      "children": [
        2
      ],
      "name": "root"
    },
    {
      "children": [
        3
      ],
      "matrix": [
        1.0,
        0.0,
        0.0,
        0.0,
        0.0,
        2.220446049250313e-16,
        1.0,
        0.0,
        0.0,
        -1.0,
        2.220446049250313e-16,
        0.0,
        0.0,
        0.0,
        0.0,
        1.0
      ],
      "name": "GLTF_SceneRootNode"
    },
    {
      "children": [
        4,
        5,
        9
      ],
      "name": "Persian Old Qashqai Kilim_2"
    },
    {
      "mesh": 0,
      "name": "Object_4"
    },
    {
      "children": [
        6,
        7,
        8
      ],
      "matrix": [
        1.0,
        0.0,
        0.0,
        0.0,
        0.0,
        1.0,
        0.0,
        0.0,
        0.0,
        0.0,
        1.0,
        0.0,
        -1.2518261671066284,
        0.0011905833380296826,
        0.005240106955170631,
        1.0
      ],
      "name": "frange1_0"
    },
    {
      "mesh": 1,
      "name": "Object_6"
    },
    {
      "mesh": 2,
      "name": "Object_7"
    },
    {
      "mesh": 3,
      "name": "Object_8"
    },
    {
      "children": [
        10,
        11,
        12
      ],
      "matrix": [
        1.0,
        0.0,
        0.0,
        0.0,
        0.0,
        1.0,
        0.0,
        0.0,
        0.0,
        0.0,
        1.0,
        0.0,
        1.2155845165252686,
        0.0006159906042739749,
        -0.04006250947713852,
        1.0
      ],
      "name": "frange2_1"
    },
    {
      "mesh": 4,
      "name": "Object_10"
    },
    {
      "mesh": 5,
      "name": "Object_11"
    },
    {
      "mesh": 6,
      "name": "Object_12"
    }
  ],
  "samplers": [
    {
      "magFilter": 9729,
      "minFilter": 9987,
      "wrapS": 10497,
      "wrapT": 10497
    }
  ],
  "scene": 0,
  "scenes": [
    {
      "name": "Sketchfab_Scene",
      "nodes": [
        0
      ]
    }
  ],
  "textures": [
    {
      "sampler": 0,
      "source": 0
    }
  ]
}
